<?xml version="1.0" encoding="UTF-8"?>
<svg version="1.1" xmlns="http://www.w3.org/2000/svg" width="259" height="343">
<path d="M0 0 C4.76705697 2.04051147 7.48845863 6.62805762 10 11 C10.88265163 13.82815063 11.12712285 16.37278001 11.13422108 19.32733536 C11.13867892 20.19076467 11.14313676 21.05419398 11.14772969 21.94378781 C11.14754533 22.88774372 11.14736097 23.83169962 11.14717102 24.80426025 C11.15084771 25.81067086 11.1545244 26.81708147 11.1583125 27.85398936 C11.16935171 31.23632356 11.17319358 34.61862704 11.17700195 38.00097656 C11.18326635 40.42205401 11.18991313 42.8431305 11.19691467 45.26420593 C11.21614097 52.53590305 11.22674203 59.80759763 11.23564246 67.07931244 C11.2400281 70.50519471 11.24539414 73.93107543 11.25063133 77.35695648 C11.26764045 88.7474447 11.28213469 100.13793197 11.28938007 111.52843094 C11.2912899 114.48298392 11.29321025 117.43753689 11.29516602 120.39208984 C11.29564976 121.1264112 11.2961335 121.86073256 11.2966319 122.61730608 C11.30493258 134.51333735 11.33027153 146.40926808 11.36274669 158.30525544 C11.39582826 170.5231168 11.41382976 182.74092708 11.41702431 194.95883346 C11.41918824 201.81696165 11.42791973 208.67494315 11.45348549 215.53302765 C11.47748013 221.98445495 11.48101128 228.43568996 11.47072411 234.88715553 C11.47022793 237.25426676 11.47657223 239.62139086 11.49028015 241.98846245 C11.50795681 245.22189382 11.50091294 248.45437329 11.48774719 251.68780518 C11.49871644 252.62283819 11.50968568 253.55787121 11.52098733 254.52123857 C11.45281748 261.46351498 9.82774053 266.7952274 5.18359375 272.05859375 C4.60738281 272.51363281 4.03117187 272.96867187 3.4375 273.4375 C2.85871094 273.91058594 2.27992188 274.38367188 1.68359375 274.87109375 C-2.20827699 277.48072401 -6.48577862 277.56427767 -11 277 C-17.20584474 275.10630473 -20.93934941 271.6615468 -24 266 C-24.92135608 263.23593177 -25.12746148 261.59834344 -25.13422108 258.74886036 C-25.13867892 257.87697191 -25.14313676 257.00508346 -25.14772969 256.10677415 C-25.14754533 255.14823256 -25.14736097 254.18969097 -25.14717102 253.20210266 C-25.15084771 252.18429582 -25.1545244 251.16648898 -25.1583125 250.11783952 C-25.1693678 246.6909407 -25.17319631 243.2640722 -25.17700195 239.8371582 C-25.1832652 237.38667199 -25.18991187 234.93618673 -25.19691467 232.48570251 C-25.2161551 225.12014793 -25.22674487 217.75460139 -25.23564246 210.38902906 C-25.2400263 206.91981004 -25.24539288 203.45059255 -25.25063133 199.98137474 C-25.26764345 188.44766844 -25.28213727 176.91396308 -25.28938007 165.38024616 C-25.29128995 162.38736787 -25.29321028 159.39448959 -25.29516602 156.40161133 C-25.29564976 155.65775262 -25.2961335 154.91389392 -25.2966319 154.14749404 C-25.3049309 142.09943641 -25.33026567 130.05147811 -25.36274669 118.00346384 C-25.39582771 105.63195248 -25.41382979 93.26049157 -25.41702431 80.88893574 C-25.4191885 73.94360297 -25.42792351 66.99841503 -25.45348549 60.05312538 C-25.47747942 53.5188102 -25.48101161 46.98470869 -25.47072411 40.45034218 C-25.47022789 38.05259332 -25.47657332 35.65483177 -25.49028015 33.25712204 C-25.50795433 29.98204002 -25.50091406 26.70789804 -25.48774719 23.43281555 C-25.49871644 22.48542757 -25.50968568 21.53803959 -25.52098733 20.56194288 C-25.46288337 14.56981826 -24.43104034 9.99246243 -21 5 C-14.59186544 -0.95041066 -8.51621616 -0.85356153 0 0 Z " fill="#0056A8" transform="translate(230,3)"/>
<path d="M0 0 C3.5444318 3.26906758 5.54336388 5.34634251 5.87947559 10.35349846 C5.89182895 11.98284303 5.89299376 13.61229364 5.88569641 15.2416687 C5.89143473 16.58779415 5.89143473 16.58779415 5.89728898 17.96111405 C5.90764135 20.98048258 5.90362257 23.99966173 5.8996582 27.01904297 C5.90400346 29.17883481 5.90918599 31.3386251 5.91514587 33.49841309 C5.92856776 39.37443411 5.92911095 45.25039094 5.92658257 51.12642431 C5.92551493 56.02717616 5.93039099 60.9279149 5.935188 65.82866395 C5.94629442 77.3885528 5.94671434 88.94840917 5.94067383 100.50830078 C5.93463326 112.44334016 5.94694461 124.37826167 5.9682439 136.31328094 C5.98584424 146.55113442 5.99186369 156.78895034 5.98860615 167.02681839 C5.9867905 173.14539233 5.98945747 179.2638822 6.00332069 185.38244247 C6.01586875 191.13619869 6.01398354 196.88977087 6.00090981 202.64352417 C5.9985378 204.75710232 6.00130093 206.8706933 6.00953293 208.98425674 C6.01994936 211.86617454 6.01194068 214.74746899 5.9992218 217.62936401 C6.00659609 218.46876207 6.01397037 219.30816013 6.02156812 220.17299449 C5.96917551 225.80337324 4.9392973 229.18508551 0.90625 233.328125 C0.3184375 233.81796875 -0.269375 234.3078125 -0.875 234.8125 C-1.4628125 235.31265625 -2.050625 235.8128125 -2.65625 236.328125 C-7.0054889 239.4516693 -12.26688247 239.09301666 -17.375 238.5625 C-22.94103568 236.96394996 -26.27598558 234.10001303 -29.46484375 229.34375 C-31.78738716 224.79834315 -31.52076541 220.03319038 -31.51544189 215.0422821 C-31.51989858 213.73986902 -31.51989858 213.73986902 -31.5244453 212.41114455 C-31.53312966 209.496336 -31.53464032 206.58156852 -31.53613281 203.66674805 C-31.54076114 201.57901929 -31.54578582 199.49129138 -31.55117798 197.40356445 C-31.56430184 191.7278928 -31.57074682 186.05223298 -31.57518864 180.37654853 C-31.57811915 176.83129514 -31.5822239 173.28604499 -31.58669281 169.74079323 C-31.60036719 158.65040848 -31.61003436 147.56003112 -31.6138947 136.46963853 C-31.6183766 123.6636973 -31.63593093 110.85786275 -31.6648953 98.05195397 C-31.68650295 88.15545294 -31.69659848 78.25898195 -31.69793582 68.36245757 C-31.69898443 62.45062365 -31.70490425 56.53889002 -31.72275543 50.62708092 C-31.73922037 45.06619646 -31.74139922 39.50548784 -31.73261642 33.94458771 C-31.73184523 31.90440971 -31.73619958 29.86422231 -31.74607468 27.82406807 C-31.75877297 25.03705862 -31.7529288 22.25067398 -31.74249268 19.46366882 C-31.75054908 18.65801521 -31.75860548 17.85236159 -31.76690602 17.02229422 C-31.71001299 10.51756742 -30.35382486 5.85377089 -26 0.8125 C-17.55016589 -6.43021495 -8.67354027 -7.43221838 0 0 Z " fill="#0056A7" transform="translate(187.375,89.4375)"/>
<path d="M0 0 C4.91754637 2.98959641 8.45163114 6.29239343 10.3125 11.875 C10.41579781 13.74462851 10.46049044 15.61770552 10.47312927 17.49014282 C10.4831749 18.65924194 10.49322052 19.82834106 10.50357056 21.03286743 C10.50940155 22.31704559 10.51523254 23.60122375 10.52124023 24.92431641 C10.53078048 26.28945149 10.54067172 27.65458416 10.55088806 29.01971436 C10.58226037 33.50530126 10.6025418 37.99090662 10.62109375 42.4765625 C10.62603973 43.62236385 10.62603973 43.62236385 10.63108563 44.79131269 C10.66187139 51.99961965 10.68857108 59.20793086 10.70550442 66.41628456 C10.72739378 75.62550233 10.76932824 84.83413581 10.83894199 94.04312003 C10.88626211 100.52394359 10.91044878 107.00460998 10.9177013 113.48560083 C10.92264649 117.35324837 10.93761708 121.22023721 10.9774456 125.08769608 C11.01446717 128.7306595 11.02267207 132.37259234 11.00943947 136.01570892 C11.00951863 137.97856393 11.03927056 139.94134876 11.07012939 141.90396118 C11.00563286 149.795523 9.74404572 154.98950966 4.3125 160.875 C-0.31175295 164.90806997 -4.90116071 165.57459056 -10.97265625 165.31640625 C-16.13716537 164.47670908 -19.61543302 162.14572749 -23.11195087 158.31397915 C-27.63983798 151.95796588 -27.40121071 145.75516532 -27.3503418 138.16625977 C-27.35876692 136.79052345 -27.36929731 135.41479868 -27.38175964 134.03909302 C-27.40870437 130.32193225 -27.40413478 126.6054455 -27.39205909 122.88823056 C-27.38490307 119.7770024 -27.3934438 116.66589695 -27.40196449 113.55467838 C-27.42188435 106.21106209 -27.41638464 98.86777159 -27.39428711 91.52416992 C-27.37192811 83.96556699 -27.38952284 76.40781838 -27.42733639 68.84929615 C-27.45863502 62.34282502 -27.46646685 55.83661745 -27.45538265 49.33008045 C-27.44891571 45.45142808 -27.45080029 41.57326829 -27.47470665 37.69467354 C-27.49605428 34.04576643 -27.48785975 30.39805826 -27.45761299 26.74922562 C-27.4483333 24.78412951 -27.46839908 22.81896218 -27.48956299 20.85395813 C-27.38791552 13.0551858 -26.20530833 7.61931717 -20.6875 1.875 C-14.01653924 -2.99318159 -7.36372932 -3.7672059 0 0 Z " fill="#26A2DC" transform="translate(135.6875,71.125)"/>
<path d="M0 0 C5.53907065 2.37388742 8.536241 6.62212304 11 12 C11.67636007 15.46270503 11.67522984 18.8239222 11.63110352 22.34399414 C11.63825882 23.34828964 11.64541412 24.35258514 11.65278625 25.38731384 C11.66961192 28.68706587 11.65030695 31.98544766 11.62890625 35.28515625 C11.62973544 37.58865979 11.63219672 39.89216327 11.63621521 42.19566345 C11.63906895 47.01482021 11.62441155 51.83351111 11.59692383 56.65258789 C11.56282331 62.82193222 11.56887007 68.99044486 11.5875864 75.15982914 C11.59816652 79.9134359 11.58920954 84.66684992 11.57420158 89.42043877 C11.56902809 91.69496526 11.56949143 93.96951195 11.57574654 96.24403572 C11.58121152 99.42492939 11.5607818 102.60464145 11.53344727 105.78540039 C11.53997314 106.72014191 11.54649902 107.65488342 11.55322266 108.61795044 C11.44923633 115.75333853 9.86622451 120.20920245 4.625 125.3125 C-0.49835759 128.60608702 -4.72722989 129.4788217 -10.69140625 128.59375 C-15.29165541 127.41060639 -19.36649645 125.47967634 -22.03550816 121.42808723 C-25.11656695 115.81688238 -25.56854716 111.153515 -25.50170898 104.82373047 C-25.50711197 103.83733582 -25.51251495 102.85094116 -25.51808167 101.83465576 C-25.53052335 98.59518841 -25.51411019 95.35661758 -25.49609375 92.1171875 C-25.49624882 89.85612949 -25.4977391 87.59507122 -25.50050354 85.33401489 C-25.50188541 80.60488069 -25.48936261 75.87605055 -25.46655273 71.14697266 C-25.43813653 65.08973856 -25.44091726 59.03300819 -25.45364285 52.97573662 C-25.46060118 48.31055406 -25.45280944 43.64548769 -25.44038582 38.98031998 C-25.43587514 36.74683198 -25.43553116 34.51333149 -25.43945122 32.27984238 C-25.4423657 29.15879527 -25.42584554 26.03844008 -25.40405273 22.91748047 C-25.40855438 21.99784515 -25.41305603 21.07820984 -25.41769409 20.13070679 C-25.34820385 14.13257153 -24.51982741 9.67696587 -20.24609375 5.13671875 C-19.64925781 4.65847656 -19.05242187 4.18023437 -18.4375 3.6875 C-17.83808594 3.19636719 -17.23867187 2.70523437 -16.62109375 2.19921875 C-11.81469836 -1.35635567 -5.71618274 -0.48099586 0 0 Z " fill="#6CCDE5" transform="translate(85,22)"/>
<path d="M0 0 C4.9558111 4.9558111 6.24132559 10.37887323 6.29052734 17.24560547 C6.30328705 18.46061737 6.31604675 19.67562927 6.32919312 20.92745972 C6.33141876 22.22756989 6.33364441 23.52768005 6.3359375 24.8671875 C6.34237372 26.22950375 6.34910268 27.59181865 6.35610962 28.95413208 C6.36805129 31.80360109 6.37179364 34.65294915 6.37060547 37.50244141 C6.37040238 41.13609484 6.39770672 44.7689653 6.43214989 48.4024334 C6.45449419 51.2147674 6.45844074 54.02691513 6.45738602 56.83932877 C6.46086273 58.82449396 6.48247543 60.80960101 6.50448608 62.79464722 C6.46574 70.48507971 6.14942315 76.7743427 0.48178101 82.54611206 C-4.72791918 87.05743873 -8.22963718 87.3497258 -14.953125 87.27734375 C-20.66653243 86.75727718 -23.63452072 84.38737446 -27.65592957 80.30148315 C-30.41612536 76.89310523 -30.60682053 74.20662704 -30.56762695 69.80126953 C-30.56835709 69.10788986 -30.56908722 68.41451019 -30.56983948 67.70011902 C-30.56637859 65.42686473 -30.52759511 63.15570505 -30.48828125 60.8828125 C-30.47894763 59.29956176 -30.47183411 57.71629651 -30.46684265 56.13302612 C-30.44781563 51.97997681 -30.39875337 47.82781156 -30.34332275 43.67510986 C-30.29203658 39.43196571 -30.26930872 35.18867773 -30.24414062 30.9453125 C-30.19062914 22.62980409 -30.10537006 14.31501224 -30 6 C-29.34 6 -28.68 6 -28 6 C-27.79375 5.2575 -27.5875 4.515 -27.375 3.75 C-25.35874339 -0.28251322 -22.25939887 -2.09624045 -18.125 -3.75 C-10.92703352 -4.59681959 -6.05664164 -4.13197552 0 0 Z " fill="#AEDDE6" transform="translate(43,111)"/>
<path d="M0 0 C-2.31857824 1.15928912 -4.62314513 2.27262599 -7 3.3125 C-10.8459907 5.47586977 -13.03591177 8.07182354 -15 12 C-15.10247443 14.8333749 -15.14337096 17.64242649 -15.14044189 20.47625732 C-15.14341302 21.36394719 -15.14638414 22.25163706 -15.1494453 23.16622663 C-15.15815861 26.15867871 -15.15964277 29.1510909 -15.16113281 32.14355469 C-15.16575916 34.2818714 -15.17078357 36.42018728 -15.17617798 38.5585022 C-15.18932245 44.38091468 -15.19575103 50.20331562 -15.20018864 56.02574062 C-15.20311632 59.66109562 -15.20722056 63.29644744 -15.21169281 66.93180084 C-15.22537369 78.29930315 -15.23503722 89.66679822 -15.2388947 101.0343082 C-15.2433758 114.1685513 -15.26092368 127.30269035 -15.2898953 140.43690181 C-15.31149542 150.58047855 -15.32159811 160.72402598 -15.32293582 170.86762547 C-15.32398513 176.92980395 -15.32991957 182.99188469 -15.34775543 189.054039 C-15.364207 194.75688675 -15.36640574 200.45956301 -15.35761642 206.16242599 C-15.35684446 208.25623661 -15.36120962 210.35005633 -15.37107468 212.44384384 C-15.383749 215.3013706 -15.3779418 218.15828586 -15.36749268 221.01580811 C-15.37957728 222.25988627 -15.37957728 222.25988627 -15.39190602 223.52909732 C-15.34350273 229.18553453 -14.20381169 233.19514876 -10.625 237.75 C-6.22896307 241.13156687 -1.34236537 241.45670861 4 242 C4 242.33 4 242.66 4 243 C-2.53098506 243.54424876 -7.64040965 243.00509693 -13 239 C-18.64233435 232.96564242 -19.14904482 227.54520795 -19.14044189 219.4797821 C-19.14489858 218.17736902 -19.14489858 218.17736902 -19.1494453 216.84864455 C-19.15812966 213.933836 -19.15964032 211.01906852 -19.16113281 208.10424805 C-19.16576114 206.01651929 -19.17078582 203.92879138 -19.17617798 201.84106445 C-19.18930184 196.1653928 -19.19574682 190.48973298 -19.20018864 184.81404853 C-19.20311915 181.26879514 -19.2072239 177.72354499 -19.21169281 174.17829323 C-19.22536719 163.08790848 -19.23503436 151.99753112 -19.2388947 140.90713853 C-19.2433766 128.1011973 -19.26093093 115.29536275 -19.2898953 102.48945397 C-19.31150295 92.59295294 -19.32159848 82.69648195 -19.32293582 72.79995757 C-19.32398443 66.88812365 -19.32990425 60.97639002 -19.34775543 55.06458092 C-19.36422037 49.50369646 -19.36639922 43.94298784 -19.35761642 38.38208771 C-19.35684523 36.34190971 -19.36119958 34.30172231 -19.37107468 32.26156807 C-19.38377297 29.47455862 -19.3779288 26.68817398 -19.36749268 23.90116882 C-19.37554908 23.09551521 -19.38360548 22.28986159 -19.39190602 21.45979422 C-19.33501299 14.95506742 -17.97882486 10.29127089 -13.625 5.25 C-8.99450091 1.28100078 -6.21596514 -0.43367199 0 0 Z " fill="#2193EF" transform="translate(175,85)"/>
<path d="M0 0 C0.99 0.66 1.98 1.32 3 2 C2.27554688 2.03738281 1.55109375 2.07476562 0.8046875 2.11328125 C-6.1852201 2.58859497 -11.34482884 3.1295447 -16.3125 8.5 C-18.86192294 12.27692287 -19.12823632 15.09524705 -19.14717102 19.54594421 C-19.15432632 20.69966019 -19.16148163 21.85337616 -19.16885376 23.04205322 C-19.17154266 24.30910095 -19.17423157 25.57614868 -19.17700195 26.8815918 C-19.18326812 28.22864456 -19.18991505 29.5756956 -19.19691467 30.92274475 C-19.21794275 35.34822387 -19.22831722 39.77370328 -19.23828125 44.19921875 C-19.24232955 45.72422618 -19.24644649 47.24923343 -19.25063133 48.77424049 C-19.2696818 55.94073201 -19.28391203 63.10721325 -19.2922433 70.27372521 C-19.30200968 78.53770016 -19.32831392 86.80140684 -19.36874419 95.06528729 C-19.398942 101.45777888 -19.41371572 107.85019373 -19.41702431 114.24275523 C-19.41937102 118.0582306 -19.42828131 121.87341933 -19.45348549 125.68881798 C-19.47683514 129.28155769 -19.48097218 132.87382345 -19.47072411 136.46661949 C-19.46999584 138.40455571 -19.48903947 140.34246823 -19.50878906 142.28030396 C-19.46684001 149.3353186 -18.82582689 154.01237007 -15 160 C-10.72668459 164.14996197 -5.8277246 165.63576721 0 166 C0 166.33 0 166.66 0 167 C-5.94877266 167.61966382 -9.97197013 167.01724915 -15.078125 163.875 C-21.15957262 157.94188037 -22.57826366 152.57509956 -22.68875122 144.15657043 C-22.68020111 142.88101791 -22.671651 141.60546539 -22.6628418 140.29125977 C-22.67126692 138.91552345 -22.68179731 137.53979868 -22.69425964 136.16409302 C-22.72120437 132.44693225 -22.71663478 128.7304455 -22.70455909 125.01323056 C-22.69740307 121.9020024 -22.7059438 118.79089695 -22.71446449 115.67967838 C-22.73438435 108.33606209 -22.72888464 100.99277159 -22.70678711 93.64916992 C-22.68442811 86.09056699 -22.70202284 78.53281838 -22.73983639 70.97429615 C-22.77113502 64.46782502 -22.77896685 57.96161745 -22.76788265 51.45508045 C-22.76141571 47.57642808 -22.76330029 43.69826829 -22.78720665 39.81967354 C-22.80855428 36.17076643 -22.80035975 32.52305826 -22.77011299 28.87422562 C-22.7608333 26.90912951 -22.78089908 24.94396218 -22.80206299 22.97895813 C-22.70041552 15.1801858 -21.51780833 9.74431717 -16 4 C-10.82033585 0.22474502 -6.33255189 -0.64398833 0 0 Z " fill="#4AE4FA" transform="translate(131,69)"/>
<path d="M0 0 C0.66 0.33 1.32 0.66 2 1 C1.54109375 1.32871094 1.0821875 1.65742187 0.609375 1.99609375 C-0.00421875 2.47175781 -0.6178125 2.94742187 -1.25 3.4375 C-1.85328125 3.88996094 -2.4565625 4.34242188 -3.078125 4.80859375 C-8.58621732 11.08916243 -9.58691622 18.16347341 -9.50793457 26.24021912 C-9.51417453 27.23315651 -9.5204145 28.22609389 -9.52684355 29.2491203 C-9.54272123 32.55621868 -9.53018936 35.86257467 -9.51757812 39.16967773 C-9.52300157 41.54884265 -9.53012548 43.92800421 -9.53881836 46.30715942 C-9.55513976 52.08659458 -9.55278473 57.86579626 -9.5411678 63.64523845 C-9.53211411 68.34508883 -9.53091781 73.04488102 -9.53526306 77.74473763 C-9.53587599 78.41504377 -9.53648893 79.08534991 -9.53712043 79.77596836 C-9.53839941 81.13792826 -9.53969626 82.49988814 -9.5410108 83.861848 C-9.55240294 96.61769265 -9.53932486 109.3734221 -9.51780933 122.12924785 C-9.49994365 133.05928607 -9.50304067 143.98915431 -9.52148438 154.91918945 C-9.54292237 167.62953473 -9.55130013 180.33977913 -9.53903532 193.05013996 C-9.53776121 194.40724216 -9.53650372 195.76434438 -9.53526306 197.12144661 C-9.53433741 198.12287179 -9.53433741 198.12287179 -9.53339306 199.14452777 C-9.52994861 203.83476912 -9.53574896 208.52494615 -9.54518127 213.21517754 C-9.5567588 219.53624084 -9.54867873 225.85698403 -9.52560425 232.17801285 C-9.52032717 234.49428463 -9.5218137 236.81058348 -9.53065491 239.12684441 C-9.54163334 242.29585578 -9.52781809 245.46385014 -9.50793457 248.63279724 C-9.51685746 249.54303019 -9.52578034 250.45326313 -9.53497362 251.39107889 C-9.45102929 258.31864845 -8.01254305 265.09107922 -3.69436693 270.69412225 C0.20481662 274.38816695 3.88270709 274.73531244 9 275 C9 275.66 9 276.32 9 277 C2.94825803 276.73103369 -1.24566965 276.09093541 -6 272 C-9.30826537 267.6187837 -11.12119483 264.24002315 -11.13422108 258.74886036 C-11.13867892 257.87697191 -11.14313676 257.00508346 -11.14772969 256.10677415 C-11.14754533 255.14823256 -11.14736097 254.18969097 -11.14717102 253.20210266 C-11.15084771 252.18429582 -11.1545244 251.16648898 -11.1583125 250.11783952 C-11.1693678 246.6909407 -11.17319631 243.2640722 -11.17700195 239.8371582 C-11.1832652 237.38667199 -11.18991187 234.93618673 -11.19691467 232.48570251 C-11.2161551 225.12014793 -11.22674487 217.75460139 -11.23564246 210.38902906 C-11.2400263 206.91981004 -11.24539288 203.45059255 -11.25063133 199.98137474 C-11.26764345 188.44766844 -11.28213727 176.91396308 -11.28938007 165.38024616 C-11.29128995 162.38736787 -11.29321028 159.39448959 -11.29516602 156.40161133 C-11.29564976 155.65775262 -11.2961335 154.91389392 -11.2966319 154.14749404 C-11.3049309 142.09943641 -11.33026567 130.05147811 -11.36274669 118.00346384 C-11.39582771 105.63195248 -11.41382979 93.26049157 -11.41702431 80.88893574 C-11.4191885 73.94360297 -11.42792351 66.99841503 -11.45348549 60.05312538 C-11.47747942 53.5188102 -11.48101161 46.98470869 -11.47072411 40.45034218 C-11.47022789 38.05259332 -11.47657332 35.65483177 -11.49028015 33.25712204 C-11.50795433 29.98204002 -11.50091406 26.70789804 -11.48774719 23.43281555 C-11.49871644 22.48542757 -11.50968568 21.53803959 -11.52098733 20.56194288 C-11.46288337 14.56981826 -10.43104034 9.99246243 -7 5 C-4.71809758 2.88109061 -2.76653461 1.38326731 0 0 Z " fill="#259BF8" transform="translate(216,3)"/>
<path d="M0 0 C1.50433594 0.01353516 1.50433594 0.01353516 3.0390625 0.02734375 C3.80992188 0.03894531 4.58078125 0.05054687 5.375 0.0625 C5.375 0.3925 5.375 0.7225 5.375 1.0625 C4.57835938 1.14886719 3.78171875 1.23523438 2.9609375 1.32421875 C-3.77614866 2.21757932 -8.00372509 2.9547751 -12.625 8.0625 C-14.36154706 10.9621946 -14.87749762 13.08671707 -14.89242554 16.4513855 C-14.90095551 17.32328522 -14.90948547 18.19518494 -14.91827393 19.09350586 C-14.91736755 20.04217529 -14.91646118 20.99084473 -14.91552734 21.96826172 C-14.92224457 22.97357941 -14.92896179 23.97889709 -14.93588257 25.01467896 C-14.95489234 28.34056531 -14.95878827 31.66625019 -14.9609375 34.9921875 C-14.96736326 37.30380334 -14.97409145 39.61541835 -14.98110962 41.92703247 C-14.99308978 46.77412807 -14.99678967 51.62115236 -14.99560547 56.46826172 C-14.99540222 62.67810034 -15.02270762 68.88748162 -15.05714989 75.09721184 C-15.07939117 79.87218322 -15.08344386 84.64704404 -15.08238602 89.42206192 C-15.08474602 91.71139223 -15.09359194 94.0007254 -15.10905075 96.29000473 C-15.12865433 99.49297839 -15.12289426 102.69495945 -15.11083984 105.89794922 C-15.12769836 107.31488068 -15.12769836 107.31488068 -15.14489746 108.76043701 C-15.09102428 114.39590835 -14.34468175 117.5660668 -10.625 122.0625 C-10.0475 122.84625 -9.47 123.63 -8.875 124.4375 C-8.4625 124.97375 -8.05 125.51 -7.625 126.0625 C-12.51265533 124.70481796 -14.15091098 122.39215579 -16.625 118.0625 C-17.53966117 115.3185165 -17.75410735 113.69565702 -17.76544189 110.86979675 C-17.77115204 110.01610001 -17.77686218 109.16240326 -17.78274536 108.28283691 C-17.78386322 107.34927368 -17.78498108 106.41571045 -17.78613281 105.45385742 C-17.79109772 104.4681929 -17.79606262 103.48252838 -17.80117798 102.46699524 C-17.81580338 99.20064602 -17.82260231 95.93434536 -17.828125 92.66796875 C-17.83387621 90.399765 -17.83963395 88.13156126 -17.84539795 85.86335754 C-17.85590906 81.10445936 -17.86175099 76.34557808 -17.86523438 71.58666992 C-17.87071881 65.49011463 -17.89474546 59.39378271 -17.92320633 53.29729748 C-17.94183436 48.61069589 -17.94703841 43.92414808 -17.94857025 39.23751259 C-17.95159701 36.9900522 -17.95962628 34.74259276 -17.97275543 32.49516869 C-17.98981875 29.34971523 -17.98793476 26.20480719 -17.98144531 23.05932617 C-17.9906601 22.13183563 -17.99987488 21.20434509 -18.0093689 20.24874878 C-17.97041418 14.21819945 -17.16984875 9.76604756 -12.87109375 5.19921875 C-12.27425781 4.72097656 -11.67742187 4.24273437 -11.0625 3.75 C-10.46308594 3.25886719 -9.86367187 2.76773437 -9.24609375 2.26171875 C-6.06764066 -0.08957065 -3.90651707 -0.04542462 0 0 Z " fill="#8FF8FB" transform="translate(77.625,21.9375)"/>
<path d="M0 0 C0.53625 0.2475 1.0725 0.495 1.625 0.75 C0.738125 1.12125 -0.14875 1.4925 -1.0625 1.875 C-5.37174704 4.31419644 -8.1287294 7.2574588 -10.375 11.75 C-10.49720889 13.75920848 -10.55521175 15.77243674 -10.58374023 17.78515625 C-10.60303085 19.05407715 -10.62232147 20.32299805 -10.64219666 21.63037109 C-10.6570108 23.02440364 -10.67078313 24.4184476 -10.68359375 25.8125 C-10.69016558 26.5153009 -10.6967374 27.21810181 -10.70350838 27.94219971 C-10.7361231 31.66896552 -10.76055785 35.39570268 -10.7800293 39.12255859 C-10.79777364 42.19362678 -10.83247618 45.26376473 -10.88256836 48.33447266 C-10.94313841 52.05220179 -10.97355596 55.76907517 -10.98320198 59.48727417 C-10.99170337 60.89698236 -11.01038891 62.30667102 -11.0399456 63.71609497 C-11.22484284 73.04219859 -10.18512225 79.29633817 -4.375 86.75 C-8.20247232 85.24635016 -10.18732936 83.21633962 -12.375 79.75 C-12.85601807 76.45329285 -12.85601807 76.45329285 -12.82910156 72.66479492 C-12.82968567 71.97156128 -12.83026978 71.27832764 -12.83087158 70.56408691 C-12.82809746 68.28569464 -12.79704032 66.00863082 -12.765625 63.73046875 C-12.75816015 62.14578465 -12.75246837 60.5610913 -12.74847412 58.97639465 C-12.73323683 54.81525978 -12.69397208 50.65468768 -12.6496582 46.49377441 C-12.608664 42.24397392 -12.59045429 37.99408206 -12.5703125 33.74414062 C-12.52747541 25.41250281 -12.45924787 17.08132151 -12.375 8.75 C-11.715 8.75 -11.055 8.75 -10.375 8.75 C-10.16875 8.0075 -9.9625 7.265 -9.75 6.5 C-7.76669865 2.5333973 -4.66177998 -0.49071368 0 0 Z " fill="#D5FDFD" transform="translate(25.375,108.25)"/>
<path d="M0 0 C1.29233853 1.9385078 2.52697141 3.91732061 3.6875 5.9375 C7.21704104 10.61175706 11.13807881 12.89300051 16.9375 13.75 C17.948125 13.8325 18.95875 13.915 20 14 C20 14.33 20 14.66 20 15 C13.80233597 15.64559 9.78719545 14.9988123 4.6640625 11.35546875 C2.6145546 9.68603392 1.16309403 8.39888144 0 6 C-0.1875 2.75 -0.1875 2.75 0 0 Z " fill="#46DCF7" transform="translate(111,221)"/>
<path d="M0 0 C-2.31857824 1.15928912 -4.62314513 2.27262599 -7 3.3125 C-10.26996947 5.15185783 -11.83122265 6.97920298 -14 10 C-14.66 10.66 -15.32 11.32 -16 12 C-16.33 11.01 -16.66 10.02 -17 9 C-13.14119743 2.72944583 -7.45635342 -0.72744911 0 0 Z " fill="#2192EE" transform="translate(175,85)"/>
<path d="M0 0 C4.03932853 -0.28580155 7.97005043 -0.45551292 12 0 C14.75 2.5 14.75 2.5 16 5 C14.95779297 4.52433594 14.95779297 4.52433594 13.89453125 4.0390625 C10.73811356 2.90598948 8.02719833 2.59519989 4.6875 2.375 C3.08455078 2.26285156 3.08455078 2.26285156 1.44921875 2.1484375 C0.64097656 2.09945313 -0.16726562 2.05046875 -1 2 C-0.67 1.34 -0.34 0.68 0 0 Z " fill="#0C6CC1" transform="translate(218,3)"/>
<path d="M0 0 C1.051875 1.1446875 1.051875 1.1446875 2.125 2.3125 C7.39042915 7.2345316 12.03880297 8.39989681 19 9 C19 9.33 19 9.66 19 10 C12.34861284 10.55428226 7.62272894 9.69455091 2 6 C1.34 5.34 0.68 4.68 0 4 C0 2.68 0 1.36 0 0 Z " fill="#1E8DE8" transform="translate(160,318)"/>
<path d="M0 0 C1.1446875 1.175625 1.1446875 1.175625 2.3125 2.375 C5.56458721 5.55145727 7.70635789 7.18423192 12.1875 7.625 C13.445625 7.74875 14.70375 7.8725 16 8 C16 8.66 16 9.32 16 10 C10.01654066 9.73406847 5.63439907 9.17095916 1 5 C0.125 2.25 0.125 2.25 0 0 Z " fill="#1C8AE4" transform="translate(209,270)"/>
<path d="M0 0 C2.38672669 2.96283313 4.7353371 5.94270509 7 9 C3.68167234 8.01347016 2.23451373 7.31268497 0.125 4.5 C-0.24625 3.675 -0.6175 2.85 -1 2 C-0.67 1.34 -0.34 0.68 0 0 Z " fill="#8DF5FA" transform="translate(63,139)"/>
</svg>
