<svg width="16" height="16" viewBox="0 0 16 16" fill="none" xmlns="http://www.w3.org/2000/svg">
<rect width="16" height="16" rx="4" fill="#715FDE"/>
<g clip-path="url(#clip0_14261_2043)">
<path d="M12.985 6.93776C13.1163 6.54363 13.1618 6.12606 13.1186 5.71294C13.0753 5.29981 12.9444 4.9007 12.7344 4.5423C12.4231 4.0002 11.9477 3.571 11.3767 3.31662C10.8057 3.06226 10.1687 2.99587 9.55745 3.12705C9.28178 2.81637 8.94294 2.56816 8.56356 2.39904C8.18418 2.22991 7.77308 2.14378 7.35774 2.14639C6.73286 2.14488 6.12364 2.34185 5.61791 2.70891C5.11218 3.07596 4.7361 3.59413 4.54385 4.18872C4.13677 4.27205 3.75219 4.44138 3.41585 4.68537C3.07951 4.92937 2.79918 5.24239 2.59362 5.6035C2.27988 6.14412 2.14596 6.77037 2.21117 7.39203C2.27638 8.01366 2.53734 8.5985 2.95643 9.06222C2.82521 9.45635 2.77969 9.87392 2.82291 10.287C2.86614 10.7002 2.99711 11.0993 3.20707 11.4577C3.51835 11.9998 3.99378 12.4289 4.56478 12.6833C5.13577 12.9377 5.77283 13.0041 6.38401 12.8729C6.65969 13.1836 6.99856 13.4318 7.3779 13.6009C7.75728 13.7701 8.16838 13.8562 8.58373 13.8536C9.20893 13.8552 9.81847 13.6582 10.3244 13.2909C10.8303 12.9236 11.2065 12.405 11.3985 11.8101C11.8056 11.7268 12.1902 11.5575 12.5265 11.3135C12.8629 11.0695 13.1432 10.7564 13.3488 10.3953C13.6621 9.85475 13.7957 9.22864 13.7304 8.60725C13.665 7.98585 13.404 7.40128 12.985 6.93776ZM8.58466 13.0883C8.07144 13.089 7.57435 12.9092 7.18025 12.5805C7.19802 12.5708 7.22919 12.5537 7.2495 12.5413L9.58055 11.1948C9.63905 11.1615 9.68764 11.1133 9.7213 11.055C9.75498 10.9967 9.77252 10.9304 9.77211 10.8632V7.57683L10.7574 8.14575C10.7625 8.14832 10.767 8.15213 10.7704 8.15684C10.7737 8.16155 10.7758 8.16703 10.7765 8.17273V10.8943C10.7758 11.4756 10.5447 12.0329 10.1339 12.4441C9.72302 12.8554 9.16593 13.087 8.58466 13.0883ZM3.87085 11.075C3.61379 10.6309 3.52114 10.1104 3.60912 9.60483C3.62643 9.61522 3.65667 9.63369 3.67836 9.64616L6.0094 10.9926C6.0675 11.0266 6.13359 11.0445 6.20088 11.0445C6.26814 11.0445 6.33422 11.0266 6.39232 10.9926L9.23828 9.34935V10.4872C9.2386 10.493 9.23749 10.4988 9.23503 10.5041C9.23257 10.5093 9.22886 10.5139 9.2242 10.5174L6.86776 11.878C6.36373 12.1683 5.7651 12.2467 5.20327 12.0962C4.64142 11.9457 4.16224 11.5784 3.87085 11.075ZM3.25762 5.98616C3.51357 5.5414 3.91783 5.20089 4.3996 5.0242C4.3996 5.04427 4.39845 5.07983 4.39845 5.10451V7.79745C4.39804 7.86471 4.41555 7.93086 4.44918 7.98913C4.48281 8.04738 4.53133 8.09561 4.58978 8.12889L7.43574 9.77195L6.45048 10.3408C6.44562 10.3441 6.44003 10.346 6.43423 10.3465C6.42844 10.347 6.42258 10.3461 6.41723 10.3439L4.06056 8.98215C3.55741 8.69075 3.19033 8.21175 3.03981 7.65012C2.88929 7.08852 2.96762 6.49013 3.25762 5.98616ZM11.3526 7.86992L8.50663 6.22665L9.49192 5.65797C9.49678 5.65478 9.50237 5.65282 9.50816 5.65229C9.51396 5.65177 9.51978 5.6527 9.52514 5.65499L11.8818 7.01552C12.2429 7.22409 12.537 7.53117 12.7299 7.90086C12.9227 8.27055 13.0062 8.6875 12.9706 9.10294C12.9351 9.51837 12.7819 9.91507 12.529 10.2466C12.2761 10.5781 11.934 10.8307 11.5428 10.9748C11.5428 10.9545 11.5428 10.919 11.5428 10.8943V8.20136C11.5433 8.13421 11.526 8.06813 11.4926 8.00988C11.4592 7.95164 11.4109 7.90335 11.3526 7.86992ZM12.3333 6.39398C12.316 6.38336 12.2857 6.36512 12.264 6.35268L9.93297 5.0062C9.87487 4.9723 9.80881 4.95442 9.74152 4.95442C9.67426 4.95442 9.60818 4.9723 9.55008 5.0062L6.70412 6.64949V5.51166C6.70379 5.50583 6.70491 5.50004 6.70737 5.49477C6.70982 5.4895 6.71354 5.48491 6.71819 5.48142L9.07464 4.12201C9.43564 3.91385 9.84847 3.8128 10.2648 3.83067C10.6812 3.84854 11.0838 3.98461 11.4256 4.22294C11.7674 4.46128 12.0343 4.79202 12.1951 5.17651C12.3558 5.56098 12.4038 5.98326 12.3333 6.39398ZM6.16845 8.42201L5.18293 7.85309C5.17777 7.85052 5.1733 7.84671 5.16996 7.842C5.16662 7.83729 5.16449 7.83182 5.16378 7.82608V5.10451C5.16405 4.68768 5.28305 4.27955 5.50684 3.92788C5.73065 3.57622 6.05 3.29558 6.4275 3.11881C6.805 2.94205 7.22503 2.87647 7.63845 2.92976C8.05189 2.98304 8.44157 3.15299 8.76191 3.4197C8.74415 3.42939 8.71321 3.44647 8.69266 3.45894L6.36162 4.80541C6.30311 4.83866 6.25456 4.88689 6.22087 4.94514C6.18721 5.00339 6.16968 5.06956 6.17006 5.13682L6.16845 8.42201ZM6.70365 7.26802L7.9712 6.53593L9.23872 7.26755V8.73126L7.9712 9.46291L6.70365 8.73126V7.26802Z" fill="white"/>
</g>
<defs>
<clipPath id="clip0_14261_2043">
<rect width="12" height="12" fill="white" transform="translate(2 2)"/>
</clipPath>
</defs>
</svg>
