<svg viewBox="0 0 36 36" fill="none" xmlns="http://www.w3.org/2000/svg"><g clip-path="url(#clip0_1_2)"><path d="M.075 6.055a5.98 5.98 0 015.98-5.98h23.92a5.98 5.98 0 015.98 5.98v23.92a5.98 5.98 0 01-5.98 5.98H6.055a5.98 5.98 0 01-5.98-5.98V6.055z" fill="#000"/><path fill-rule="evenodd" clip-rule="evenodd" d="M17.941 4.983c.826 0 1.495.67 1.495 1.495v12.45a1.495 1.495 0 11-2.99 0V6.478c0-.825.67-1.495 1.495-1.495zm-6.48 1.995c.825 0 1.495.669 1.495 1.495v8.97a1.495 1.495 0 01-2.99 0v-8.97c0-.826.669-1.495 1.495-1.495zm12.958 0c.826 0 1.495.669 1.495 1.495v8.97a1.495 1.495 0 01-2.99 0v-8.97c0-.826.67-1.495 1.495-1.495z" fill="#fff"/><path d="M23.343 23.634a36.224 36.224 0 01-10.78 0c-1.07-.162-1.885.945-1.428 1.927 2.688 5.766 10.949 5.766 13.636 0 .458-.982-.357-2.089-1.428-1.927z" fill="#fff"/></g><defs><clipPath id="clip0_1_2"><path fill="#fff" d="M0 0h36v36H0z"/></clipPath></defs></svg>